<svg id="图层_1" data-name="图层 1" xmlns="http://www.w3.org/2000/svg" viewBox="0 0 200 200"><defs><style>.cls-1{fill:#dc5555;}</style></defs><title>Error Icon</title><path class="cls-1" d="M192.08,61.06a100.06,100.06,0,0,0-184.28,0A99.07,99.07,0,0,0,0,97.29v5.38A100,100,0,0,0,199.94,100a99,99,0,0,0-7.86-38.93ZM141.76,143a7.18,7.18,0,0,1-10.12,0L99.05,110.41,66.48,143a7.16,7.16,0,0,1-10.12-10.12l32.57-32.57L56.34,67.72A7.16,7.16,0,1,1,66.46,57.6L99,90.17,131.58,57.6A7.16,7.16,0,0,1,141.7,67.72l-32.49,32.57,32.55,32.57a7.18,7.18,0,0,1,0,10.12Z"/></svg>